<svg width="989" height="989" viewBox="0 0 989 989" fill="none" xmlns="http://www.w3.org/2000/svg">
<circle cx="494.5" cy="494.5" r="494.5" fill="#585146"/>
<circle cx="494.5" cy="494.5" r="300.5" fill="#C8A47C"/>
<circle cx="494.5" cy="494.5" r="300.5" fill="#C8A47C"/>
<path d="M492.5 375.501C390.836 375.501 286.5 453.668 247 495.001C290.5 538.001 391.7 612.501 492.5 612.501C618.5 612.501 739 499.5 740 494.5C734 488.5 624.5 375.501 492.5 375.501Z" fill="#3A3632"/>
<circle cx="494.5" cy="494.5" r="90.5" fill="#857059"/>
<circle cx="494.5" cy="494.5" r="47.5" fill="#3A3730"/>
<circle cx="483" cy="464" r="7" fill="white"/>
<path fill-rule="evenodd" clip-rule="evenodd" d="M360.377 968.523L494 643L627.736 968.8C585.348 981.963 540.662 989 494.5 989C448.015 989 403.029 981.864 360.377 968.523Z" fill="#393730"/>
</svg>
